<svg width="137" height="24" viewBox="0 0 137 24" fill="none" xmlns="http://www.w3.org/2000/svg">
<path d="M56.68 7.32L54.64 19H52.84L55.3 5H57.82L61.92 16.76L64 5H65.8L63.34 19H60.86L56.68 7.32ZM66.783 14.9C66.783 13.6067 67.063 12.4733 67.623 11.5C68.1963 10.5133 68.983 9.74667 69.983 9.2C70.983 8.64 72.123 8.36 73.403 8.36C74.1896 8.36 74.8763 8.44 75.463 8.6C76.063 8.76 76.5563 8.92 76.943 9.08L75.683 16.18C75.6696 16.2467 75.6563 16.3267 75.643 16.42C75.643 16.5 75.643 16.5867 75.643 16.68C75.643 17.0533 75.7496 17.32 75.963 17.48C76.1763 17.6267 76.4563 17.7 76.803 17.7L76.183 19.1C75.463 19.1 74.9096 18.9267 74.523 18.58C74.1496 18.22 73.963 17.6667 73.963 16.92C73.5896 17.56 73.1163 18.1067 72.543 18.56C71.983 19.0133 71.323 19.24 70.563 19.24C69.9096 19.24 69.2963 19.0667 68.723 18.72C68.1496 18.36 67.683 17.86 67.323 17.22C66.963 16.5667 66.783 15.7933 66.783 14.9ZM74.963 10.14C74.7096 10.06 74.443 10 74.163 9.96C73.8963 9.90667 73.5696 9.88 73.183 9.88C72.263 9.88 71.463 10.0867 70.783 10.5C70.103 10.9133 69.5696 11.4867 69.183 12.22C68.8096 12.94 68.623 13.76 68.623 14.68C68.623 15.32 68.7363 15.86 68.963 16.3C69.203 16.74 69.5096 17.0733 69.883 17.3C70.2563 17.5267 70.643 17.64 71.043 17.64C71.5896 17.64 72.0896 17.4533 72.543 17.08C72.9963 16.7067 73.383 16.1867 73.703 15.52C74.0363 14.8533 74.2763 14.0933 74.423 13.24L74.963 10.14ZM82.2813 17.4C82.7879 17.4 83.2813 17.24 83.7613 16.92C84.2546 16.6 84.6879 16.14 85.0613 15.54C85.4346 14.9267 85.6946 14.1867 85.8413 13.32L86.6613 8.6H88.4613L86.6413 19.12C86.4813 20.04 86.2346 20.7933 85.9013 21.38C85.5813 21.9667 85.2013 22.42 84.7613 22.74C84.3346 23.0733 83.8813 23.3067 83.4013 23.44C82.9213 23.5733 82.4479 23.64 81.9813 23.64C81.0746 23.64 80.3013 23.4533 79.6613 23.08C79.0346 22.7067 78.5213 22.2733 78.1213 21.78L79.5213 20.74C80.1746 21.6333 81.0346 22.08 82.1013 22.08C82.7679 22.08 83.3546 21.8333 83.8613 21.34C84.3679 20.8467 84.7279 20.0067 84.9413 18.82L85.3213 16.7C84.9213 17.34 84.4146 17.8867 83.8013 18.34C83.1879 18.78 82.4813 19 81.6813 19C81.1613 19 80.6813 18.8867 80.2413 18.66C79.8013 18.42 79.4479 18.08 79.1813 17.64C78.9146 17.2 78.7813 16.68 78.7813 16.08C78.7813 15.9333 78.7813 15.7667 78.7813 15.58C78.7946 15.3933 78.8213 15.1933 78.8613 14.98L79.9413 8.6H81.7413L80.6413 14.94C80.6013 15.18 80.5813 15.4067 80.5813 15.62C80.5813 16.22 80.7479 16.6667 81.0813 16.96C81.4279 17.2533 81.8279 17.4 82.2813 17.4ZM90.4828 8.98H92.3228L93.2828 5.7H94.6628L94.0828 8.98H96.9628L96.7028 10.54H93.8028L92.9628 15.4C92.9361 15.5467 92.9161 15.6867 92.9028 15.82C92.8895 15.94 92.8828 16.0533 92.8828 16.16C92.8828 16.6267 93.0228 16.9933 93.3028 17.26C93.5828 17.5133 93.9495 17.64 94.4028 17.64C94.7895 17.64 95.1161 17.5867 95.3828 17.48C95.6495 17.36 95.8895 17.24 96.1028 17.12L96.3228 18.68C96.0695 18.8267 95.7495 18.9533 95.3628 19.06C94.9895 19.18 94.5695 19.24 94.1028 19.24C93.6095 19.24 93.1295 19.14 92.6628 18.94C92.2095 18.74 91.8361 18.4267 91.5428 18C91.2495 17.56 91.1028 16.9933 91.1028 16.3C91.1028 16.0067 91.1295 15.68 91.1828 15.32L92.0028 10.54H90.2228L90.4828 8.98ZM105.215 10.86C104.829 10.5933 104.395 10.36 103.915 10.16C103.449 9.96 102.915 9.86 102.315 9.86C101.689 9.86 101.202 9.96667 100.855 10.18C100.509 10.3933 100.335 10.6733 100.335 11.02C100.335 11.22 100.389 11.4133 100.495 11.6C100.615 11.7733 100.822 11.96 101.115 12.16C101.422 12.36 101.849 12.6 102.395 12.88C103.302 13.3333 103.975 13.8067 104.415 14.3C104.855 14.78 105.075 15.3733 105.075 16.08C105.075 16.7867 104.889 17.3733 104.515 17.84C104.142 18.3067 103.642 18.66 103.015 18.9C102.389 19.1267 101.682 19.24 100.895 19.24C100.082 19.24 99.362 19.14 98.7353 18.94C98.122 18.7267 97.5886 18.4533 97.1353 18.12L98.1553 16.64C98.5153 16.9333 98.942 17.18 99.4353 17.38C99.9286 17.58 100.469 17.68 101.055 17.68C101.722 17.68 102.249 17.5533 102.635 17.3C103.022 17.0467 103.215 16.7333 103.215 16.36C103.215 16.0133 103.069 15.6933 102.775 15.4C102.495 15.1067 101.942 14.7533 101.115 14.34C100.449 14.0067 99.9286 13.6867 99.5553 13.38C99.182 13.06 98.922 12.72 98.7753 12.36C98.6286 12 98.5553 11.5867 98.5553 11.12C98.5553 10.5867 98.7153 10.1133 99.0353 9.7C99.3553 9.28667 99.802 8.96 100.375 8.72C100.949 8.48 101.609 8.36 102.355 8.36C103.102 8.36 103.769 8.46 104.355 8.66C104.955 8.84667 105.482 9.07333 105.935 9.34L105.215 10.86ZM115.002 11.64C115.002 11.1333 114.849 10.7267 114.542 10.42C114.249 10.1 113.862 9.94 113.382 9.94C112.915 9.94 112.402 10.1067 111.842 10.44C111.295 10.7733 110.795 11.2933 110.342 12C109.889 12.7067 109.562 13.62 109.362 14.74L108.622 19H106.822L109.422 4.2H111.222L110.062 10.78C110.475 10.0467 111.015 9.46 111.682 9.02C112.362 8.58 113.075 8.36 113.822 8.36C114.742 8.36 115.469 8.64 116.002 9.2C116.549 9.74667 116.822 10.42 116.822 11.22C116.822 11.5533 116.782 11.9733 116.702 12.48L115.562 19H113.762L114.862 12.78C114.929 12.46 114.969 12.2267 114.982 12.08C114.995 11.92 115.002 11.7733 115.002 11.64ZM121.739 19.24C121.206 19.24 120.713 19.12 120.259 18.88C119.819 18.64 119.466 18.3067 119.199 17.88C118.933 17.44 118.799 16.92 118.799 16.32C118.799 16.1467 118.806 15.9733 118.819 15.8C118.833 15.6133 118.853 15.42 118.879 15.22L120.019 8.6H121.819L120.659 15.18C120.646 15.3133 120.633 15.4333 120.619 15.54C120.606 15.6333 120.599 15.74 120.599 15.86C120.599 16.46 120.773 16.9067 121.119 17.2C121.466 17.4933 121.873 17.64 122.339 17.64C122.846 17.64 123.339 17.4867 123.819 17.18C124.313 16.86 124.746 16.4067 125.119 15.82C125.493 15.2333 125.753 14.5267 125.899 13.7L126.799 8.6H128.599L127.279 16.18C127.266 16.2467 127.253 16.3267 127.239 16.42C127.239 16.5 127.239 16.5867 127.239 16.68C127.239 17.0533 127.346 17.32 127.559 17.48C127.773 17.6267 128.053 17.7 128.399 17.7L127.779 19.1C127.059 19.1 126.506 18.9267 126.119 18.58C125.746 18.22 125.559 17.6667 125.559 16.92V16.74C124.586 18.4067 123.313 19.24 121.739 19.24ZM132.361 15.4C132.335 15.5733 132.315 15.7333 132.301 15.88C132.288 16.0133 132.281 16.1333 132.281 16.24C132.281 16.6933 132.415 17.0467 132.681 17.3C132.961 17.5533 133.328 17.68 133.781 17.68C134.008 17.68 134.235 17.6533 134.461 17.6C134.688 17.5467 134.895 17.4733 135.081 17.38L135.261 18.84C135.021 18.96 134.741 19.0533 134.421 19.12C134.101 19.2 133.755 19.24 133.381 19.24C132.581 19.24 131.895 19.0133 131.321 18.56C130.761 18.0933 130.481 17.3933 130.481 16.46C130.481 16.1133 130.508 15.7733 130.561 15.44L132.521 4.2H134.321L132.361 15.4Z" fill="black"/>
<line x1="40.071" y1="6.2282" x2="22.3266" y2="22.1167" stroke="#666666" stroke-width="5"/>
<line x1="2.33232" y1="17.7777" x2="20.0767" y2="1.88912" stroke="#666666" stroke-width="5"/>
<line x1="15.7777" y1="15.229" x2="22.7655" y2="22.2412" stroke="#666666" stroke-width="5"/>
<line x1="26.6256" y1="8.77689" x2="19.6378" y2="1.7647" stroke="#666666" stroke-width="5"/>
<line x1="21" y1="23" x2="24" y2="23" stroke="#666666" stroke-width="2"/>
<line x1="21.4033" y1="1.00586" x2="18.4033" y2="1.00586" stroke="#666666" stroke-width="2"/>
</svg>
