<svg width="24" height="24" viewBox="0 0 24 24" fill="none" xmlns="http://www.w3.org/2000/svg">
<g clip-path="url(#clip0_52_7701)">
<path d="M4.91982 10.5599H6.19998V18.2399H8.11998V11.5199H10.04V18.2399H11.96V11.5199H13.88V18.2399H15.8V10.5599H17.0797C17.4329 10.5599 17.72 10.2066 17.72 9.88836C17.72 9.69588 17.6139 9.47892 17.4536 9.37428L17.4545 9.34932L17.4445 9.33156L17.5088 9.31572L11.48 6.2106V5.30244C12.44 5.81076 13.3765 4.93524 14.84 5.4618V3.45588C13.3755 2.9298 12.44 3.80484 11.48 3.29652V3.16788C11.48 3.009 11.1771 2.87988 11 2.87988C10.8229 2.87988 10.52 3.009 10.52 3.16788V6.2106L4.49166 9.30948L4.62174 9.31956L4.75998 9.32484V9.3258C4.27998 9.43044 4.3875 9.6954 4.3875 9.88788C4.38702 10.2066 4.56654 10.5599 4.91982 10.5599ZM5.71998 18.7199L4.27998 20.1599H17.72L16.28 18.7199H5.71998ZM16.28 11.0399V18.2399H16.7048L16.8925 18.5053L18.1721 19.7048L18.6248 20.1599H22.52V11.0399H16.28ZM19.16 16.7999H17.72V15.3599H19.16V16.7999ZM19.16 13.9199H17.72V12.4799H19.16V13.9199ZM21.08 16.7999H20.12V15.3599H21.08V16.7999ZM21.08 13.9199H20.12V12.4799H21.08V13.9199ZM5.2947 18.2399H5.71998V11.0399H-0.52002V20.1599H3.3747L3.82686 19.7528L5.10702 18.5048L5.2947 18.2399ZM1.87998 16.7999H0.919981V15.3599H1.87998V16.7999ZM1.87998 13.9199H0.919981V12.4799H1.87998V13.9199ZM4.27998 16.7999H2.83998V15.3599H4.27998V16.7999ZM4.27998 13.9199H2.83998V12.4799H4.27998V13.9199Z" fill="#DEBCF4"/>
</g>
<defs>
<clipPath id="clip0_52_7701">
<rect width="24" height="24" fill="white"/>
</clipPath>
</defs>
</svg>
