<svg width="20" height="20" viewBox="0 0 20 20" fill="none" xmlns="http://www.w3.org/2000/svg">
<path d="M12.8572 0.714355V9.28578L17.9857 15.8144C18.2356 16.1305 18.3912 16.5107 18.4347 16.9112C18.4783 17.3118 18.4081 17.7165 18.2321 18.079C18.056 18.4414 17.7814 18.7469 17.4397 18.9604C17.0979 19.1738 16.7029 19.2866 16.3 19.2858H3.70002C3.29709 19.2866 2.9021 19.1738 2.56036 18.9604C2.21862 18.7469 1.94399 18.4414 1.76799 18.079C1.59198 17.7165 1.52173 17.3118 1.5653 16.9112C1.60887 16.5107 1.76449 16.1305 2.01431 15.8144L7.14288 9.28578V0.714355M5.00002 0.714355H15" stroke="#D99BFF" stroke-linecap="round" stroke-linejoin="round"/>
</svg>
