<svg width="22" height="22" viewBox="0 0 22 22" fill="none" xmlns="http://www.w3.org/2000/svg">
<path fill-rule="evenodd" clip-rule="evenodd" d="M20.5306 19.4655L15.8366 14.7723C18.6629 11.3791 18.3204 6.36303 15.0591 3.38544C11.7978 0.407857 6.77134 0.522092 3.64867 3.64476C0.525999 6.76744 0.411763 11.7939 3.38935 15.0552C6.36693 18.3165 11.383 18.659 14.7762 15.8327L19.4694 20.5267C19.7624 20.8198 20.2376 20.8198 20.5306 20.5267C20.8237 20.2337 20.8237 19.7585 20.5306 19.4655ZM2.75 9.49609C2.75 5.76817 5.77208 2.74609 9.5 2.74609C13.2279 2.74609 16.25 5.76817 16.25 9.49609C16.25 13.224 13.2279 16.2461 9.5 16.2461C5.77379 16.242 2.75413 13.2223 2.75 9.49609Z" fill="#DEBCF4" stroke="#DEBCF4"/>
</svg>
