<svg width="24" height="24" viewBox="0 0 24 24" fill="none" xmlns="http://www.w3.org/2000/svg">
<g clip-path="url(#clip0_52_7716)">
<path d="M7.27734 13.7229L10.2773 16.7229L9.22266 17.7776L6.22266 14.7776L7.27734 13.7229ZM14.25 0.000234375C15.1484 0.000234375 16.0117 0.113516 16.8398 0.340078C17.668 0.566641 18.4453 0.894766 19.1719 1.32445C19.8984 1.75414 20.5547 2.26195 21.1406 2.84789C21.7266 3.43383 22.2344 4.09008 22.6641 4.81664C23.0938 5.5432 23.4219 6.32055 23.6484 7.14867C23.875 7.9768 23.9922 8.84398 24 9.75023C24 10.8909 23.8125 11.9807 23.4375 13.0198C23.0625 14.0588 22.5391 15.0002 21.8672 15.844C21.1953 16.6877 20.3906 17.4065 19.4531 18.0002C18.5156 18.594 17.4961 19.0159 16.3945 19.2659C16.4648 19.844 16.5 20.4221 16.5 21.0002C16.5 21.4143 16.4219 21.801 16.2656 22.1604C16.1094 22.5198 15.8945 22.8401 15.6211 23.1213C15.3477 23.4026 15.0312 23.6174 14.6719 23.7659C14.3125 23.9143 13.9219 23.9924 13.5 24.0002C12.2578 24.0002 11.0625 23.8401 9.91406 23.5198C8.76562 23.1995 7.6875 22.7463 6.67969 22.1604C5.67188 21.5745 4.76172 20.8713 3.94922 20.051C3.13672 19.2307 2.43359 18.3205 1.83984 17.3205C1.24609 16.3205 0.792969 15.2463 0.480469 14.0979C0.167969 12.9495 0.0078125 11.7502 0 10.5002C0 10.0862 0.078125 9.69945 0.234375 9.34008C0.390625 8.9807 0.605469 8.66039 0.878906 8.37914C1.15234 8.09789 1.46875 7.88305 1.82812 7.73461C2.1875 7.58617 2.57812 7.50805 3 7.50023C3.57812 7.50023 4.15625 7.53539 4.73438 7.6057C4.98438 6.49633 5.40625 5.4768 6 4.54711C6.59375 3.61742 7.3125 2.81664 8.15625 2.14477C9 1.47289 9.94141 0.945547 10.9805 0.562734C12.0195 0.179922 13.1094 -0.00757813 14.25 0.000234375ZM18.3984 6.6682C18.7734 6.94164 19.1836 7.14867 19.6289 7.2893C20.0742 7.42992 20.5312 7.50023 21 7.50023C21.3906 7.50023 21.7734 7.45336 22.1484 7.35961C21.9922 6.82836 21.7812 6.32055 21.5156 5.83617C21.25 5.3518 20.9414 4.89867 20.5898 4.4768L18.3984 6.6682ZM19.5234 3.41039C19.1016 3.05883 18.6484 2.75023 18.1641 2.48461C17.6797 2.21898 17.1719 2.00805 16.6406 1.8518C16.5469 2.2268 16.5 2.60961 16.5 3.00023C16.5 3.46898 16.5703 3.92602 16.7109 4.37133C16.8516 4.81664 17.0586 5.2268 17.332 5.6018L19.5234 3.41039ZM15.1758 1.55883C15.0195 1.53539 14.8672 1.51977 14.7188 1.51195C14.5703 1.50414 14.4141 1.50023 14.25 1.50023C13.2812 1.50023 12.3477 1.6643 11.4492 1.99242C10.5508 2.32055 9.72656 2.79711 8.97656 3.42211L14.25 8.69555L16.2656 6.67992C15.8516 6.15648 15.5391 5.58227 15.3281 4.95727C15.1172 4.33227 15.0078 3.67992 15 3.00023C15 2.50805 15.0586 2.02758 15.1758 1.55883ZM7.91016 4.4768C7.49609 4.96898 7.14453 5.50023 6.85547 6.07055C6.56641 6.64086 6.35156 7.24633 6.21094 7.88695C7.28125 8.13695 8.30859 8.52367 9.29297 9.04711C10.2773 9.57055 11.1797 10.1995 12 10.9338L13.1953 9.75023L7.91016 4.4768ZM13.5 22.5002C13.7109 22.5002 13.9062 22.4612 14.0859 22.383C14.2656 22.3049 14.4219 22.1995 14.5547 22.0666C14.6875 21.9338 14.7969 21.7737 14.8828 21.5862C14.9688 21.3987 15.0078 21.2034 15 21.0002C15 19.8987 14.8594 18.8362 14.5781 17.8127C14.2969 16.7893 13.8906 15.8362 13.3594 14.9534C12.8281 14.0705 12.2031 13.262 11.4844 12.5276C10.7656 11.7932 9.95703 11.1643 9.05859 10.6409C8.16016 10.1174 7.20312 9.71508 6.1875 9.43383C5.17188 9.15258 4.10938 9.00805 3 9.00023C2.78906 9.00023 2.59375 9.0393 2.41406 9.11742C2.23438 9.19555 2.07812 9.30102 1.94531 9.43383C1.8125 9.56664 1.70312 9.7268 1.61719 9.9143C1.53125 10.1018 1.49219 10.2971 1.5 10.5002C1.5 11.6018 1.64062 12.6643 1.92188 13.6877C2.20312 14.7112 2.60938 15.6643 3.14062 16.5471C3.67188 17.4299 4.29688 18.2385 5.01562 18.9729C5.73438 19.7073 6.54297 20.3362 7.44141 20.8596C8.33984 21.383 9.29688 21.7854 10.3125 22.0666C11.3281 22.3479 12.3906 22.4924 13.5 22.5002ZM13.0664 12.0002C13.8008 12.8205 14.4297 13.7229 14.9531 14.7073C15.4766 15.6916 15.8633 16.719 16.1133 17.7893C16.7461 17.6487 17.3477 17.4338 17.918 17.1448C18.4883 16.8557 19.0234 16.5041 19.5234 16.0901L14.25 10.8049L13.0664 12.0002ZM20.5781 15.0237C21.1953 14.2815 21.668 13.4612 21.9961 12.5627C22.3242 11.6643 22.4922 10.7268 22.5 9.75023C22.5 9.59398 22.4961 9.44164 22.4883 9.2932C22.4805 9.14477 22.4648 8.98852 22.4414 8.82445C21.9727 8.94164 21.4922 9.00023 21 9.00023C20.3281 9.00023 19.6797 8.89477 19.0547 8.68383C18.4297 8.47289 17.8516 8.15648 17.3203 7.73461L15.3047 9.75023L20.5781 15.0237Z" fill="#DEBCF4"/>
</g>
<defs>
<clipPath id="clip0_52_7716">
<rect width="24" height="24" fill="white"/>
</clipPath>
</defs>
</svg>
